<?xml version="1.0" standalone="no"?>
<!DOCTYPE svg PUBLIC "-//W3C//DTD SVG 20010904//EN"
 "http://www.w3.org/TR/2001/REC-SVG-20010904/DTD/svg10.dtd">
<svg version="1.0" xmlns="http://www.w3.org/2000/svg"
 width="300.000000pt" height="169.000000pt" viewBox="0 0 300.000000 169.000000"
 preserveAspectRatio="xMidYMid meet">
<metadata>
Created by potrace 1.10, written by Peter Selinger 2001-2011
</metadata>
<g transform="translate(0.000000,169.000000) scale(0.100000,-0.100000)"
fill="#000000" stroke="none">
<path d="M1765 1488 c-27 -5 -134 -7 -236 -4 -116 4 -270 0 -410 -9 -146 -9
-238 -11 -264 -5 -22 5 -43 6 -48 1 -4 -4 -12 -133 -18 -287 -5 -153 -14 -358
-20 -454 -21 -338 -21 -364 -5 -443 9 -42 16 -81 16 -86 0 -6 -67 -8 -187 -5
-184 5 -273 -1 -280 -21 -2 -6 93 -10 264 -10 148 0 356 -2 463 -5 242 -6 356
8 325 39 -7 7 -22 8 -45 1 -61 -18 -182 -23 -352 -15 l-166 7 -5 52 c-2 28
-10 81 -17 119 -13 65 -10 107 15 247 2 14 9 196 15 405 5 209 12 392 16 406
5 24 8 26 46 19 22 -4 88 -4 146 1 258 21 372 25 442 17 45 -5 151 -4 265 2
105 6 245 9 312 8 l123 -3 -1 -70 0 -70 -54 -43 c-39 -30 -57 -53 -65 -80 -14
-50 -13 -105 3 -121 10 -11 4 -12 -33 -7 -29 4 -65 21 -100 46 -88 64 -191
108 -303 129 -89 16 -108 17 -163 5 -76 -16 -88 -21 -162 -83 -51 -42 -60 -56
-77 -112 -41 -132 -21 -224 74 -343 42 -53 62 -68 133 -101 80 -38 88 -40 213
-45 160 -6 169 -2 285 111 114 112 150 183 150 293 l0 78 34 -21 c18 -12 49
-21 68 -21 l35 0 -2 -50 c-1 -46 -5 -53 -56 -100 -30 -28 -73 -63 -97 -77 -30
-18 -40 -29 -33 -36 15 -15 72 18 128 75 26 27 50 48 54 48 4 0 5 -48 3 -107
-2 -59 -4 -115 -4 -124 0 -9 -34 -55 -76 -103 -55 -62 -74 -90 -66 -98 8 -8
19 -1 39 23 79 94 122 140 130 137 4 -2 39 -38 77 -81 48 -55 72 -75 79 -68 8
8 3 19 -14 38 -14 16 -51 57 -82 92 l-57 64 0 119 0 119 28 -14 c15 -8 61 -24
102 -36 41 -13 93 -31 115 -42 37 -18 65 -13 51 9 -3 5 -71 31 -151 58 l-145
48 0 52 0 53 54 24 c64 30 87 61 94 125 4 45 2 49 -41 92 -53 50 -83 69 -113
70 -18 0 -22 8 -28 46 -3 26 -6 65 -6 88 l0 41 -183 1 c-100 1 -204 -3 -232
-8z m466 -198 c6 0 32 -21 59 -46 42 -40 50 -52 50 -83 0 -47 -23 -79 -74
-102 -58 -26 -125 -25 -167 4 -29 19 -34 29 -37 66 -6 84 47 149 110 136 28
-7 30 -5 25 15 -4 16 -2 20 10 16 8 -3 19 -6 24 -6z m-623 -69 c107 -21 205
-64 286 -125 31 -24 62 -39 91 -43 l45 -6 0 -72 c0 -63 -5 -82 -35 -143 -29
-58 -52 -86 -126 -151 -63 -56 -102 -82 -126 -87 -19 -4 -84 -2 -144 3 -96 9
-118 14 -184 48 -62 31 -84 49 -122 99 -25 34 -53 77 -61 96 -20 46 -19 141 1
212 14 45 26 64 65 96 26 21 58 45 72 52 21 11 104 36 132 39 4 1 52 -8 106
-18z"/>
<path d="M2104 1218 c-4 -6 1 -15 10 -20 16 -9 16 -11 1 -28 -20 -23 -2 -38
22 -18 13 10 17 10 20 1 9 -26 23 -12 19 18 -2 24 -10 35 -34 45 -22 9 -34 10
-38 2z"/>
<path d="M2225 1221 c-3 -6 4 -15 15 -21 l21 -11 -23 -20 -23 -20 33 5 c18 3
32 1 32 -4 0 -6 6 -10 13 -10 8 0 13 13 13 36 0 29 -3 34 -18 31 -9 -3 -22 1
-29 9 -13 16 -25 18 -34 5z"/>
<path d="M1510 1124 c-17 -26 -20 -38 -11 -47 6 -6 12 -9 13 -6 15 23 38 73
38 80 0 20 -20 7 -40 -27z"/>
<path d="M1340 1130 c0 -5 12 -10 26 -10 20 0 25 -4 20 -16 -3 -9 -6 -35 -6
-58 0 -42 -1 -42 -30 -38 -47 7 -35 -12 15 -26 55 -15 125 -16 125 -2 0 6 -21
10 -46 10 l-46 0 6 31 c3 17 6 47 6 65 0 29 3 34 24 34 14 0 28 5 31 10 4 6
-18 10 -59 10 -37 0 -66 -4 -66 -10z"/>
<path d="M1586 1054 c-13 -96 0 -113 32 -41 21 44 19 45 39 -13 4 -10 8 -7 13
12 17 58 40 56 40 -4 0 -30 17 -47 26 -25 7 19 -13 94 -27 103 -6 3 -19 -2
-29 -11 -12 -11 -20 -13 -25 -6 -4 8 -12 8 -26 1 -16 -9 -19 -7 -19 10 0 39
-17 20 -24 -26z"/>
<path d="M1763 923 c4 -27 9 -58 13 -70 5 -19 2 -23 -15 -23 -27 0 -53 -48
-40 -73 13 -22 58 -22 66 -1 6 15 7 15 19 -1 24 -33 35 -6 13 36 -11 23 -17
48 -14 60 8 23 -22 119 -37 119 -7 0 -9 -17 -5 -47z m17 -121 c0 -15 -28 -47
-35 -40 -11 11 5 48 21 48 8 0 14 -4 14 -8z"/>
<path d="M1440 852 c0 -88 -10 -106 -57 -100 l-28 3 23 23 c22 22 29 42 14 42
-14 0 -52 -45 -52 -62 0 -32 26 -42 75 -28 l45 13 0 88 c0 48 -4 91 -10 94 -6
4 -10 -23 -10 -73z"/>
<path d="M1496 838 c-23 -32 -21 -85 3 -98 29 -15 61 -12 68 5 7 21 -4 32 -19
17 -8 -8 -17 -8 -31 0 -19 10 -19 11 14 22 45 14 53 51 14 66 -34 13 -31 14
-49 -12z"/>
<path d="M1615 826 c-23 -35 -16 -60 18 -64 15 -2 27 -8 27 -13 0 -5 7 -9 15
-9 17 0 20 11 6 26 -5 5 -11 25 -13 44 -4 43 -30 51 -53 16z"/>
</g>
</svg>
