<?xml version="1.0" standalone="no"?>
<!DOCTYPE svg PUBLIC "-//W3C//DTD SVG 20010904//EN"
 "http://www.w3.org/TR/2001/REC-SVG-20010904/DTD/svg10.dtd">
<svg version="1.0" xmlns="http://www.w3.org/2000/svg"
 width="300.000000pt" height="169.000000pt" viewBox="0 0 300.000000 169.000000"
 preserveAspectRatio="xMidYMid meet">
<metadata>
Created by potrace 1.10, written by Peter Selinger 2001-2011
</metadata>
<g transform="translate(0.000000,169.000000) scale(0.100000,-0.100000)"
fill="#000000" stroke="none">
<path d="M1765 1488 c-27 -5 -134 -7 -236 -4 -116 4 -270 0 -410 -9 -146 -9
-238 -11 -264 -5 -22 5 -43 6 -48 1 -4 -4 -12 -133 -18 -287 -5 -153 -14 -358
-20 -454 -21 -338 -21 -364 -5 -443 9 -42 16 -81 16 -86 0 -6 -67 -8 -187 -5
-184 5 -273 -1 -280 -21 -2 -6 93 -10 264 -10 148 0 356 -2 463 -5 242 -6 356
8 325 39 -7 7 -22 8 -45 1 -61 -18 -182 -23 -352 -15 l-166 7 -5 52 c-2 28
-10 81 -17 119 -13 65 -10 107 15 247 2 14 9 196 15 405 5 209 12 392 16 406
5 24 8 26 46 19 22 -4 88 -4 146 1 258 21 372 25 442 17 45 -5 151 -4 265 2
105 6 245 9 312 8 l123 -3 -1 -70 0 -70 -54 -43 c-57 -44 -75 -81 -75 -152 0
-102 127 -151 247 -96 61 29 84 61 91 124 4 45 2 49 -41 92 -53 50 -83 69
-113 70 -18 0 -22 8 -28 46 -3 26 -6 65 -6 88 l0 41 -183 1 c-100 1 -204 -3
-232 -8z m466 -198 c6 0 32 -21 59 -46 42 -40 50 -52 50 -83 0 -47 -23 -79
-74 -102 -58 -26 -125 -25 -167 4 -29 19 -34 29 -37 66 -4 55 11 92 49 120 23
17 37 21 61 16 28 -7 30 -5 25 15 -4 16 -2 20 10 16 8 -3 19 -6 24 -6z"/>
</g>
</svg>
